<?xml version="1.0" encoding="utf-8"?>
<!-- Generator: Adobe Illustrator 17.1.0, SVG Export Plug-In . SVG Version: 6.00 Build 0)  -->
<!DOCTYPE svg PUBLIC "-//W3C//DTD SVG 1.1//EN" "http://www.w3.org/Graphics/SVG/1.1/DTD/svg11.dtd">
<svg version="1.1" id="Layer_1" xmlns="http://www.w3.org/2000/svg" xmlns:xlink="http://www.w3.org/1999/xlink" x="0px" y="0px"
	 viewBox="0 0 36.2 36.2" enable-background="new 0 0 36.2 36.2" xml:space="preserve">
<path fill="#FFFFFF" d="M18.1,0C8.1,0,0,8.1,0,18.1c0,10,8.1,18.1,18.1,18.1c10,0,18.1-8.1,18.1-18.1C36.2,8.1,28.1,0,18.1,0z
	 M22,18.1h-2.5c0,4.1,0,9,0,9h-3.8c0,0,0-4.9,0-9h-1.8v-3.2h1.8v-2.1c0-1.5,0.7-3.8,3.8-3.8l2.8,0v3.1c0,0-1.7,0-2,0
	c-0.3,0-0.8,0.2-0.8,0.9v1.9h2.9L22,18.1z"/>
</svg>
