<?xml version="1.0" encoding="utf-8"?>
<!-- Generator: Adobe Illustrator 17.1.0, SVG Export Plug-In . SVG Version: 6.00 Build 0)  -->
<!DOCTYPE svg PUBLIC "-//W3C//DTD SVG 1.1//EN" "http://www.w3.org/Graphics/SVG/1.1/DTD/svg11.dtd">
<svg version="1.1" id="Layer_1" xmlns="http://www.w3.org/2000/svg" xmlns:xlink="http://www.w3.org/1999/xlink" x="0px" y="0px"
	 viewBox="0 0 36.2 36.2" enable-background="new 0 0 36.2 36.2" xml:space="preserve">
<g>
	<path fill="#FFFFFF" d="M18.1,15c-1.8,0-3.2,1.4-3.2,3.1c0,1.8,1.4,3.2,3.1,3.2c1.8,0,3.2-1.4,3.2-3.1C21.3,16.4,19.9,15,18.1,15z"
		/>
	<path fill="#FFFFFF" d="M25.9,16c0-0.7,0-1.4-0.1-2.1c-0.1-2.1-1.4-3.5-3.6-3.6c-2.8,0-5.6,0-8.4,0c-2.1,0-3.5,1.4-3.6,3.5
		c-0.1,2.8,0,5.6,0,8.4c0,2.1,1.4,3.5,3.5,3.5c2.8,0.1,5.6,0,8.4,0c1.9,0,3.2-1.1,3.4-3c0.2-1.6,0.2-3.1,0.2-4.7c0,0,0,0-0.1,0
		C25.9,17.4,26,16.7,25.9,16z M18.1,23c-2.7,0-4.9-2.2-4.9-4.9c0-2.7,2.2-4.9,4.9-4.9c2.7,0,4.9,2.2,4.9,4.9
		C23,20.8,20.8,23,18.1,23z M23.2,14.2c-0.6,0-1.2-0.5-1.2-1.2c0-0.6,0.5-1.1,1.2-1.1c0.6,0,1.2,0.5,1.2,1.1
		C24.4,13.6,23.9,14.2,23.2,14.2z"/>
	<path fill="#FFFFFF" d="M18.1,0C8.1,0,0,8.1,0,18.1c0,10,8.1,18.1,18.1,18.1c10,0,18.1-8.1,18.1-18.1C36.2,8.1,28.1,0,18.1,0z
		 M27.6,22.8c-0.1,2.6-2.2,4.7-4.8,4.8c-3.1,0.1-6.2,0.1-9.3,0c-2.2,0-3.9-1.5-4.6-3.6c-0.2-0.6-0.2-1.2-0.4-1.9c0-2.7,0-5.4,0-8
		c0-0.2,0.1-0.4,0.1-0.6c0.2-2.3,1.6-4,3.7-4.6c0.6-0.2,1.2-0.2,1.7-0.3c2.7,0,5.4,0,8,0c0.2,0,0.4,0.1,0.6,0.1
		c2.6,0.2,4.7,2.2,4.8,4.8C27.7,16.6,27.7,19.7,27.6,22.8z"/>
</g>
</svg>
