<?xml version="1.0" encoding="utf-8"?>
<!-- Generator: Adobe Illustrator 17.1.0, SVG Export Plug-In . SVG Version: 6.00 Build 0)  -->
<!DOCTYPE svg PUBLIC "-//W3C//DTD SVG 1.1//EN" "http://www.w3.org/Graphics/SVG/1.1/DTD/svg11.dtd">
<svg version="1.1" id="Layer_1" xmlns="http://www.w3.org/2000/svg" xmlns:xlink="http://www.w3.org/1999/xlink" x="0px" y="0px"
	 viewBox="0 0 36.2 36.2" enable-background="new 0 0 36.2 36.2" xml:space="preserve">
<g>
	<path fill="#FFFFFF" d="M19.2,16.8L19.2,16.8C19.2,16.7,19.2,16.8,19.2,16.8L19.2,16.8z"/>
	<path fill="#FFFFFF" d="M18.1,0C8.1,0,0,8.1,0,18.1c0,10,8.1,18.1,18.1,18.1c10,0,18.1-8.1,18.1-18.1C36.2,8.1,28.1,0,18.1,0z
		 M13.2,26.7H9.3V15.1h3.9V26.7z M11.2,13.5L11.2,13.5c-1.3,0-2.2-0.9-2.2-2c0-1.1,0.9-2,2.2-2c1.3,0,2.1,0.9,2.2,2
		C13.4,12.6,12.6,13.5,11.2,13.5z M27.1,26.7h-3.9v-6.2c0-1.6-0.6-2.6-2-2.6c-1.1,0-1.7,0.7-2,1.4c-0.1,0.2-0.1,0.6-0.1,0.9v6.5
		h-3.9c0,0,0-10.6,0-11.7h3.9v1.7c0.5-0.8,1.4-1.9,3.5-1.9c2.6,0,4.5,1.7,4.5,5.2V26.7z"/>
</g>
</svg>
