<?xml version="1.0" encoding="utf-8"?>
<!-- Generator: Adobe Illustrator 17.1.0, SVG Export Plug-In . SVG Version: 6.00 Build 0)  -->
<!DOCTYPE svg PUBLIC "-//W3C//DTD SVG 1.1//EN" "http://www.w3.org/Graphics/SVG/1.1/DTD/svg11.dtd">
<svg version="1.1" id="Layer_1" xmlns="http://www.w3.org/2000/svg" xmlns:xlink="http://www.w3.org/1999/xlink" x="0px" y="0px"
	 viewBox="0 0 36.2 36.2" enable-background="new 0 0 36.2 36.2" xml:space="preserve">
<path fill="#FFFFFF" d="M18.1,0C8.1,0,0,8.1,0,18.1c0,10,8.1,18.1,18.1,18.1c10,0,18.1-8.1,18.1-18.1C36.2,8.1,28.1,0,18.1,0z
	 M25.3,14.4c0,0.2,0,0.3,0,0.5c0,4.9-3.7,10.6-10.6,10.6c-2.1,0-4-0.6-5.7-1.7c0.3,0,0.6,0.1,0.9,0.1c1.7,0,3.3-0.6,4.6-1.6
	c-1.6,0-3-1.1-3.5-2.6c0.2,0,0.5,0.1,0.7,0.1c0.3,0,0.7,0,1-0.1c-1.7-0.3-3-1.8-3-3.6c0,0,0,0,0,0c0.5,0.3,1.1,0.4,1.7,0.5
	c-1-0.7-1.7-1.8-1.7-3.1c0-0.7,0.2-1.3,0.5-1.9c1.8,2.2,4.6,3.7,7.7,3.9c-0.1-0.3-0.1-0.6-0.1-0.8c0-2,1.7-3.7,3.7-3.7
	c1.1,0,2,0.5,2.7,1.2c0.8-0.2,1.6-0.5,2.4-0.9c-0.3,0.9-0.9,1.6-1.6,2.1c0.8-0.1,1.5-0.3,2.1-0.6C26.6,13.2,26,13.9,25.3,14.4z"/>
</svg>
